<svg class="border shadow-md" viewBox="0 0 735.68 551.76" style="width: 735.68px; height: 551.76px;" xmlns="http://www.w3.org/2000/svg" preserveAspectRatio="none"><rect class="bg" id="bg" x="0" y="0" width="735.68" height="551.76" fill="#ffffff"/><g transform="rotate(0 367.84 275.88)"><path id="-1" d="M -467.84 -25.18 S -243.92 -52.76&#10;            0.00 -25.18 94.84 -52.76&#10;            467.84 -25.18 691.76 -73.18&#10;            935.68 -25.18 1115.52 -57.18&#10;            1403.52 -25.18 h 110 V 751.76 H -467.84 Z" fill="#868686"/><path id="0" d="M -467.84 30.00 S -243.92 -10.00&#10;            0.00 30.00 223.92 2.41&#10;            467.84 30.00 691.76 2.41&#10;            935.68 30.00 1159.60 2.41&#10;            1403.52 30.00 h 110 V 751.76 H -467.84 Z" fill="#797979"/><path id="1" d="M -467.84 85.18 S -243.92 53.18&#10;            0.00 85.18 223.92 57.59&#10;            467.84 85.18 623.68 57.59&#10;            935.68 85.18 1159.60 50.18&#10;            1403.52 85.18 h 110 V 751.76 H -467.84 Z" fill="#6c6c6c"/><path id="2" d="M -467.84 140.35 S -243.92 112.76&#10;            0.00 140.35 112.84 106.35&#10;            467.84 140.35 691.76 112.76&#10;            935.68 140.35 1070.52 96.35&#10;            1403.52 140.35 h 110 V 751.76 H -467.84 Z" fill="#5f5f5f"/><path id="3" d="M -467.84 195.53 S -388.00 167.53&#10;            0.00 195.53 223.92 167.94&#10;            467.84 195.53 535.68 167.94&#10;            935.68 195.53 950.52 143.53&#10;            1403.52 195.53 h 110 V 751.76 H -467.84 Z" fill="#525252"/><path id="4" d="M -467.84 250.70 S -322.00 223.12&#10;            0.00 250.70 223.92 223.12&#10;            467.84 250.70 616.68 197.70&#10;            935.68 250.70 1159.60 213.70&#10;            1403.52 250.70 h 110 V 751.76 H -467.84 Z" fill="#454545"/><path id="5" d="M -467.84 305.88 S -243.92 278.29&#10;            0.00 305.88 223.92 278.29&#10;            467.84 305.88 618.68 278.29&#10;            935.68 305.88 1159.60 278.29&#10;            1403.52 305.88 h 110 V 751.76 H -467.84 Z" fill="#383838"/><path id="6" d="M -467.84 361.06 S -433.00 333.47&#10;            0.00 361.06 150.84 323.06&#10;            467.84 361.06 651.68 333.47&#10;            935.68 361.06 1159.60 333.47&#10;            1403.52 361.06 h 110 V 751.76 H -467.84 Z" fill="#2b2b2b"/><path id="7" d="M -467.84 416.23 S -243.92 388.64&#10;            0.00 416.23 223.92 388.64&#10;            467.84 416.23 691.76 382.23&#10;            935.68 416.23 1159.60 388.64&#10;            1403.52 416.23 h 110 V 751.76 H -467.84 Z" fill="#1e1e1e"/><path id="8" d="M -467.84 471.41 S -451.00 434.41&#10;            0.00 471.41 223.92 443.82&#10;            467.84 471.41 462.68 443.82&#10;            935.68 471.41 972.52 443.82&#10;            1403.52 471.41 h 110 V 751.76 H -467.84 Z" fill="#111111"/><path id="9" d="M -467.84 526.58 S -243.92 495.58&#10;            0.00 526.58 152.84 499.00&#10;            467.84 526.58 691.76 493.58&#10;            935.68 526.58 1159.60 499.00&#10;            1403.52 526.58 h 110 V 751.76 H -467.84 Z" fill="#040404"/></g></svg>