<svg id="visual" viewBox="0 0 900 600" width="900" height="600" xmlns="http://www.w3.org/2000/svg" xmlns:xlink="http://www.w3.org/1999/xlink" version="1.1"><rect x="0" y="0" width="900" height="600" fill="#332f2f"></rect><path d="M0 313L25 322.7C50 332.3 100 351.7 150 352.3C200 353 250 335 300 316.3C350 297.7 400 278.3 450 275.8C500 273.3 550 287.7 600 310.8C650 334 700 366 750 381C800 396 850 394 875 393L900 392L900 601L875 601C850 601 800 601 750 601C700 601 650 601 600 601C550 601 500 601 450 601C400 601 350 601 300 601C250 601 200 601 150 601C100 601 50 601 25 601L0 601Z" fill="#66c649"></path><path d="M0 413L25 421.5C50 430 100 447 150 450.5C200 454 250 444 300 432.5C350 421 400 408 450 397.8C500 387.7 550 380.3 600 390.7C650 401 700 429 750 428.5C800 428 850 399 875 384.5L900 370L900 601L875 601C850 601 800 601 750 601C700 601 650 601 600 601C550 601 500 601 450 601C400 601 350 601 300 601C250 601 200 601 150 601C100 601 50 601 25 601L0 601Z" fill="#00aae8"></path><path d="M0 474L25 470.7C50 467.3 100 460.7 150 464.3C200 468 250 482 300 492.7C350 503.3 400 510.7 450 505.5C500 500.3 550 482.7 600 478.8C650 475 700 485 750 491.5C800 498 850 501 875 502.5L900 504L900 601L875 601C850 601 800 601 750 601C700 601 650 601 600 601C550 601 500 601 450 601C400 601 350 601 300 601C250 601 200 601 150 601C100 601 50 601 25 601L0 601Z" fill="#914ecb"></path></svg>