<svg xmlns="http://www.w3.org/2000/svg" viewBox="0 0 735.68 551.76"><rect width="735.68" height="551.76" fill="#332f2f" id="bg" class="bg"/><g><g transform="translate(22.99,&#10;                                114.95) rotate(0, 22.99, 22.99)"><svg xmlns="http://www.w3.org/2000/svg" id="Layer_1" data-name="Layer 1" viewBox="0 0 100 100" width="45.98" height="45.98"><circle cx="50" cy="50" r="50" fill="#F200F0"/></svg></g><g transform="translate(114.95,&#10;                                114.95) rotate(270, 22.99, 22.99)"><svg xmlns="http://www.w3.org/2000/svg" id="Layer_1" data-name="Layer 1" viewBox="0 0 100 100" width="45.98" height="45.98"><circle cx="50" cy="50" r="50" fill="#4800F7"/></svg></g><g transform="translate(206.91,&#10;                                22.99) rotate(270, 22.99, 22.99)"><svg xmlns="http://www.w3.org/2000/svg" id="Layer_1" data-name="Layer 1" viewBox="0 0 100 100" width="45.98" height="45.98"><circle cx="50" cy="50" r="50" fill="#914ECB"/></svg></g><g transform="translate(298.87,&#10;                                22.99) rotate(90, 22.99, 22.99)"><svg xmlns="http://www.w3.org/2000/svg" id="Layer_1" data-name="Layer 1" viewBox="0 0 100 100" width="45.98" height="45.98"><circle cx="50" cy="50" r="50" fill="#66C649"/></svg></g><g transform="translate(482.79,&#10;                                22.99) rotate(0, 22.99, 22.99)"><svg xmlns="http://www.w3.org/2000/svg" id="Layer_1" data-name="Layer 1" viewBox="0 0 100 100" width="45.98" height="45.98"><circle cx="50" cy="50" r="50" fill="#4800F7"/></svg></g><g transform="translate(390.83,&#10;                                114.95) rotate(90, 22.99, 22.99)"><svg xmlns="http://www.w3.org/2000/svg" id="Layer_1" data-name="Layer 1" viewBox="0 0 100 100" width="45.98" height="45.98"><circle cx="50" cy="50" r="50" fill="#66C649"/></svg></g><g transform="translate(574.75,&#10;                                22.99) rotate(270, 22.99, 22.99)"><svg xmlns="http://www.w3.org/2000/svg" id="Layer_1" data-name="Layer 1" viewBox="0 0 100 100" width="45.98" height="45.98"><circle cx="50" cy="50" r="50" fill="#914ECB"/></svg></g><g transform="translate(666.71,&#10;                                22.99) rotate(90, 22.99, 22.99)"><svg xmlns="http://www.w3.org/2000/svg" id="Layer_1" data-name="Layer 1" viewBox="0 0 100 100" width="45.98" height="45.98"><circle cx="50" cy="50" r="50" fill="#4800F7"/></svg></g><g transform="translate(574.75,&#10;                                114.95) rotate(0, 22.99, 22.99)"><svg xmlns="http://www.w3.org/2000/svg" id="Layer_1" data-name="Layer 1" viewBox="0 0 100 100" width="45.98" height="45.98"><circle cx="50" cy="50" r="50" fill="#66C649"/></svg></g><g transform="translate(666.71,&#10;                                114.95) rotate(180, 22.99, 22.99)"><svg xmlns="http://www.w3.org/2000/svg" id="Layer_1" data-name="Layer 1" viewBox="0 0 100 100" width="45.98" height="45.98"><circle cx="50" cy="50" r="50" fill="#F200F0"/></svg></g></g><g><g transform="translate(114.95,&#10;                                206.91) rotate(0, 22.99, 22.99)"><svg xmlns="http://www.w3.org/2000/svg" id="Layer_1" data-name="Layer 1" viewBox="0 0 100 100" width="45.98" height="45.98"><circle cx="50" cy="50" r="50" fill="#4800F7"/></svg></g><g transform="translate(114.95,&#10;                                298.87) rotate(90, 22.99, 22.99)"><svg xmlns="http://www.w3.org/2000/svg" id="Layer_1" data-name="Layer 1" viewBox="0 0 100 100" width="45.98" height="45.98"><circle cx="50" cy="50" r="50" fill="#4800F7"/></svg></g><g transform="translate(206.91,&#10;                                206.91) rotate(180, 22.99, 22.99)"><svg xmlns="http://www.w3.org/2000/svg" id="Layer_1" data-name="Layer 1" viewBox="0 0 100 100" width="45.98" height="45.98"><circle cx="50" cy="50" r="50" fill="#4800F7"/></svg></g><g transform="translate(206.91,&#10;                                298.87) rotate(180, 22.99, 22.99)"><svg xmlns="http://www.w3.org/2000/svg" id="Layer_1" data-name="Layer 1" viewBox="0 0 100 100" width="45.98" height="45.98"><circle cx="50" cy="50" r="50" fill="#F200F0"/></svg></g><g transform="translate(482.79,&#10;                                206.91) rotate(90, 22.99, 22.99)"><svg xmlns="http://www.w3.org/2000/svg" id="Layer_1" data-name="Layer 1" viewBox="0 0 100 100" width="45.98" height="45.98"><circle cx="50" cy="50" r="50" fill="#914ECB"/></svg></g><g transform="translate(574.75,&#10;                                206.91) rotate(270, 22.99, 22.99)"><svg xmlns="http://www.w3.org/2000/svg" id="Layer_1" data-name="Layer 1" viewBox="0 0 100 100" width="45.98" height="45.98"><circle cx="50" cy="50" r="50" fill="#914ECB"/></svg></g><g transform="translate(666.71,&#10;                                206.91) rotate(180, 22.99, 22.99)"><svg xmlns="http://www.w3.org/2000/svg" id="Layer_1" data-name="Layer 1" viewBox="0 0 100 100" width="45.98" height="45.98"><circle cx="50" cy="50" r="50" fill="#66C649"/></svg></g><g transform="translate(666.71,&#10;                                298.87) rotate(270, 22.99, 22.99)"><svg xmlns="http://www.w3.org/2000/svg" id="Layer_1" data-name="Layer 1" viewBox="0 0 100 100" width="45.98" height="45.98"><circle cx="50" cy="50" r="50" fill="#4800F7"/></svg></g></g><g><g transform="translate(22.99,&#10;                                390.83) rotate(270, 22.99, 22.99)"><svg xmlns="http://www.w3.org/2000/svg" id="Layer_1" data-name="Layer 1" viewBox="0 0 100 100" width="45.98" height="45.98"><circle cx="50" cy="50" r="50" fill="#4800F7"/></svg></g><g transform="translate(114.95,&#10;                                390.83) rotate(90, 22.99, 22.99)"><svg xmlns="http://www.w3.org/2000/svg" id="Layer_1" data-name="Layer 1" viewBox="0 0 100 100" width="45.98" height="45.98"><circle cx="50" cy="50" r="50" fill="#914ECB"/></svg></g><g transform="translate(298.87,&#10;                                390.83) rotate(90, 22.99, 22.99)"><svg xmlns="http://www.w3.org/2000/svg" id="Layer_1" data-name="Layer 1" viewBox="0 0 100 100" width="45.98" height="45.98"><circle cx="50" cy="50" r="50" fill="#66C649"/></svg></g><g transform="translate(206.91,&#10;                                482.79) rotate(180, 22.99, 22.99)"><svg xmlns="http://www.w3.org/2000/svg" id="Layer_1" data-name="Layer 1" viewBox="0 0 100 100" width="45.98" height="45.98"><circle cx="50" cy="50" r="50" fill="#F200F0"/></svg></g><g transform="translate(298.87,&#10;                                482.79) rotate(180, 22.99, 22.99)"><svg xmlns="http://www.w3.org/2000/svg" id="Layer_1" data-name="Layer 1" viewBox="0 0 100 100" width="45.98" height="45.98"><circle cx="50" cy="50" r="50" fill="#4800F7"/></svg></g><g transform="translate(482.79,&#10;                                482.79) rotate(0, 22.99, 22.99)"><svg xmlns="http://www.w3.org/2000/svg" id="Layer_1" data-name="Layer 1" viewBox="0 0 100 100" width="45.98" height="45.98"><circle cx="50" cy="50" r="50" fill="#4800F7"/></svg></g><g transform="translate(574.75,&#10;                                390.83) rotate(90, 22.99, 22.99)"><svg xmlns="http://www.w3.org/2000/svg" id="Layer_1" data-name="Layer 1" viewBox="0 0 100 100" width="45.98" height="45.98"><circle cx="50" cy="50" r="50" fill="#914ECB"/></svg></g><g transform="translate(574.75,&#10;                                482.79) rotate(0, 22.99, 22.99)"><svg xmlns="http://www.w3.org/2000/svg" id="Layer_1" data-name="Layer 1" viewBox="0 0 100 100" width="45.98" height="45.98"><circle cx="50" cy="50" r="50" fill="#F200F0"/></svg></g><g transform="translate(666.71,&#10;                                482.79) rotate(270, 22.99, 22.99)"><svg xmlns="http://www.w3.org/2000/svg" id="Layer_1" data-name="Layer 1" viewBox="0 0 100 100" width="45.98" height="45.98"><circle cx="50" cy="50" r="50" fill="#4800F7"/></svg></g></g></svg>