<svg class="border shadow-md" viewBox="0 0 735.68 551.76" style="width: 735.68px; height: 551.76px;" xmlns="http://www.w3.org/2000/svg" preserveAspectRatio="none"><rect class="bg" id="bg" x="0" y="0" width="735.68" height="551.76" fill="#ffffff"/><path d="M 0 -55.176 L 0 -55.18&#10;                L 49.05 -27.59&#10;                L 147.136 -55.18 L 147.136 -55.18&#10;                L 196.18 -18.18&#10;                L 294.272 -55.18 L 294.272 -55.18&#10;                L 386.27 -27.59&#10;                L 441.408 -55.18 L 441.408 -55.18&#10;                L 490.45 -25.18&#10;                L 588.544 -55.18 L 588.544 -55.18&#10;                L 677.54 -27.59&#10;                L 735.68 -55.18 L 735.68 -55.18&#10;                L 800.68 -27.59&#10;                L 882.8159999999999 -55.18  V 551.76 H 0 V -55.18 Z" fill="#914ECB"/><path d="M 0 0 L 0 0.00&#10;                L 107.00 27.59&#10;                L 147.136 0.00 L 147.136 0.00&#10;                L 196.18 27.59&#10;                L 294.272 0.00 L 294.272 0.00&#10;                L 362.27 27.59&#10;                L 441.408 0.00 L 441.408 0.00&#10;                L 541.41 54.00&#10;                L 588.544 0.00 L 588.544 0.00&#10;                L 684.54 52.00&#10;                L 735.68 0.00 L 735.68 0.00&#10;                L 784.73 54.00&#10;                L 882.8159999999999 0.00  V 551.76 H 0 V 0.00 Z" fill="#8449bf"/><path d="M 0 55.176 L 0 55.18&#10;                L 75.00 83.18&#10;                L 147.136 55.18 L 147.136 55.18&#10;                L 196.18 83.18&#10;                L 294.272 55.18 L 294.272 55.18&#10;                L 390.27 89.18&#10;                L 441.408 55.18 L 441.408 55.18&#10;                L 490.45 82.76&#10;                L 588.544 55.18 L 588.544 55.18&#10;                L 637.59 82.76&#10;                L 735.68 55.18 L 735.68 55.18&#10;                L 784.73 82.76&#10;                L 882.8159999999999 55.18  V 551.76 H 0 V 55.18 Z" fill="#7744b3"/><path d="M 0 110.352 L 0 110.35&#10;                L 49.05 137.94&#10;                L 147.136 110.35 L 147.136 110.35&#10;                L 196.18 137.94&#10;                L 294.272 110.35 L 294.272 110.35&#10;                L 343.32 137.94&#10;                L 441.408 110.35 L 441.408 110.35&#10;                L 490.45 163.35&#10;                L 588.544 110.35 L 588.544 110.35&#10;                L 637.59 149.35&#10;                L 735.68 110.35 L 735.68 110.35&#10;                L 784.73 146.35&#10;                L 882.8159999999999 110.35  V 551.76 H 0 V 110.35 Z" fill="#6a3fa7"/><path d="M 0 165.52800000000002 L 0 165.53&#10;                L 49.05 196.53&#10;                L 147.136 165.53 L 147.136 165.53&#10;                L 196.18 193.12&#10;                L 294.272 165.53 L 294.272 165.53&#10;                L 343.32 193.12&#10;                L 441.408 165.53 L 441.408 165.53&#10;                L 549.41 202.53&#10;                L 588.544 165.53 L 588.544 165.53&#10;                L 653.54 210.53&#10;                L 735.68 165.53 L 735.68 165.53&#10;                L 821.68 197.53&#10;                L 882.8159999999999 165.53  V 551.76 H 0 V 165.53 Z" fill="#5d3a9b"/><path d="M 0 220.704 L 0 220.70&#10;                L 108.00 248.29&#10;                L 147.136 220.70 L 147.136 220.70&#10;                L 238.14 274.70&#10;                L 294.272 220.70 L 294.272 220.70&#10;                L 343.32 248.29&#10;                L 441.408 220.70 L 441.408 220.70&#10;                L 529.41 274.70&#10;                L 588.544 220.70 L 588.544 220.70&#10;                L 663.54 248.29&#10;                L 735.68 220.70 L 735.68 220.70&#10;                L 784.73 248.29&#10;                L 882.8159999999999 220.70  V 551.76 H 0 V 220.70 Z" fill="#50358f"/><path d="M 0 275.88 L 0 275.88&#10;                L 68.00 303.47&#10;                L 147.136 275.88 L 147.136 275.88&#10;                L 196.18 318.88&#10;                L 294.272 275.88 L 294.272 275.88&#10;                L 380.27 327.88&#10;                L 441.408 275.88 L 441.408 275.88&#10;                L 495.41 321.88&#10;                L 588.544 275.88 L 588.544 275.88&#10;                L 691.54 316.88&#10;                L 735.68 275.88 L 735.68 275.88&#10;                L 784.73 303.47&#10;                L 882.8159999999999 275.88  V 551.76 H 0 V 275.88 Z" fill="#433083"/><path d="M 0 331.05600000000004 L 0 331.06&#10;                L 49.05 358.64&#10;                L 147.136 331.06 L 147.136 331.06&#10;                L 196.18 381.06&#10;                L 294.272 331.06 L 294.272 331.06&#10;                L 343.32 370.06&#10;                L 441.408 331.06 L 441.408 331.06&#10;                L 490.45 358.64&#10;                L 588.544 331.06 L 588.544 331.06&#10;                L 637.59 374.06&#10;                L 735.68 331.06 L 735.68 331.06&#10;                L 784.73 363.06&#10;                L 882.8159999999999 331.06  V 551.76 H 0 V 331.06 Z" fill="#362b77"/><path d="M 0 386.232 L 0 386.23&#10;                L 102.00 413.82&#10;                L 147.136 386.23 L 147.136 386.23&#10;                L 209.14 436.23&#10;                L 294.272 386.23 L 294.272 386.23&#10;                L 403.27 427.23&#10;                L 441.408 386.23 L 441.408 386.23&#10;                L 546.41 413.82&#10;                L 588.544 386.23 L 588.544 386.23&#10;                L 637.59 414.23&#10;                L 735.68 386.23 L 735.68 386.23&#10;                L 784.73 429.23&#10;                L 882.8159999999999 386.23  V 551.76 H 0 V 386.23 Z" fill="#29266b"/><path d="M 0 441.408 L 0 441.41&#10;                L 60.00 469.00&#10;                L 147.136 441.41 L 147.136 441.41&#10;                L 250.14 469.00&#10;                L 294.272 441.41 L 294.272 441.41&#10;                L 343.32 487.41&#10;                L 441.408 441.41 L 441.408 441.41&#10;                L 490.45 469.00&#10;                L 588.544 441.41 L 588.544 441.41&#10;                L 668.54 469.00&#10;                L 735.68 441.41 L 735.68 441.41&#10;                L 843.68 480.41&#10;                L 882.8159999999999 441.41  V 551.76 H 0 V 441.41 Z" fill="#1c215f"/><path d="M 0 496.584 L 0 496.58&#10;                L 85.00 548.58&#10;                L 147.136 496.58 L 147.136 496.58&#10;                L 196.18 536.58&#10;                L 294.272 496.58 L 294.272 496.58&#10;                L 343.32 547.58&#10;                L 441.408 496.58 L 441.408 496.58&#10;                L 503.41 531.58&#10;                L 588.544 496.58 L 588.544 496.58&#10;                L 637.59 524.17&#10;                L 735.68 496.58 L 735.68 496.58&#10;                L 835.68 524.17&#10;                L 882.8159999999999 496.58  V 551.76 H 0 V 496.58 Z" fill="#0f1c53"/></svg>